<svg data-v-0dd9719b="" version="1.0" xmlns="http://www.w3.org/2000/svg" xmlns:xlink="http://www.w3.org/1999/xlink" width="100%" height="100%" viewBox="0 0 340.000000 250.000000" preserveAspectRatio="xMidYMid meet" color-interpolation-filters="sRGB" style="margin: auto;"> <rect data-v-0dd9719b="" x="0" y="0" width="100%" height="100%" fill="#fff" fill-opacity="1" class="background"></rect> <rect data-v-0dd9719b="" x="0" y="0" width="100%" height="100%" fill="url(#watermark)" fill-opacity="1" class="watermarklayer"></rect> <g data-v-0dd9719b="" fill="#333" class="icon-text-wrapper icon-svg-group iconsvg" transform="translate(47.720001220703125,103.24557685852051)"><g class="iconsvg-imagesvg" transform="translate(0,0)"><g><rect fill="#333" fill-opacity="0" stroke-width="2" x="0" y="0" width="60" height="43.50884317237479" class="image-rect"></rect> <svg x="0" y="0" width="60" height="43.50884317237479" filtersec="colorsb6715440128" class="image-svg-svg primary" style="overflow: visible;"><svg xmlns="http://www.w3.org/2000/svg" viewBox="-0.007279634475708008 -0.004371317103505135 68.2577896118164 49.49688720703125"><defs><linearGradient id="a1f5fe142-cbdc-4af2-a0f0-cd4abdd1a852" y1="24.75" x2="68.26" y2="24.75" gradientUnits="userSpaceOnUse"><stop offset="0" stop-color="#2be8f7"></stop><stop offset=".47" stop-color="#6f05da"></stop><stop offset=".99" stop-color="#cd1ede"></stop></linearGradient></defs><path d="M30.44 0h9.2c3.06 0 4.36 2.14 2.9 5-1 1.86-2 3.68-3.11 5.44a6 6 0 0 0 0 6.86c3.14 5.27 6.19 10.59 9.22 15.92 1.73 3 .46 5.24-3 5.33-2.72.07-5.44 0-8.15 0-1.51 0-4 2.67-4 4.13 0 .71.48.79 1 .79 4.39 0 8.82.29 13.16-.2 5.86-.65 8.61-6.5 5.74-11.86-2.66-5-5.54-9.83-8.47-14.66-1.22-2-1.36-3.74 0-5.79 1.85-2.86 3.47-5.88 5.14-8.85A3.85 3.85 0 0 1 53.69 0c3.63.07 7.25 0 10.88 0 3.29.05 4.6 2.16 3 5-1.75 3.18-3.66 6.26-5.44 9.42a4.34 4.34 0 0 1-4.48 2.4c-1.31-.1-2.64 0-4 0s-1.7.49-1 1.73c1.88 3.19 3.74 6.38 5.51 9.62 5.49 10.07-.47 20.73-12 21.19-5.84.24-11.71.1-17.56 0-3.33-.05-4.58-2.37-3-5.26 1-1.77 1.91-3.57 3-5.26 1.54-2.33 1.35-4.52 0-6.84-2.86-4.79-5.63-9.62-8.41-14.46-.79-1.54-2.19-3.21-1.04-5.19s3.16-1.4 4.92-1.44c2.3-.05 4.6 0 6.9 0 1.26 0 3.82-3.05 3.7-4.26C34.59 5.88 34 6 33.56 6c-4.32 0-8.66-.21-13 .09a7.64 7.64 0 0 0-6.06 11.22c2.71 5.19 5.68 10.24 8.71 15.25a5.25 5.25 0 0 1-.14 6.19c-1.77 2.76-3.35 5.63-5 8.48a4 4 0 0 1-3.75 2.2c-3.49 0-7 .07-10.46 0C.13 49.27-1 47.16.9 43.82c1.71-3 3.51-6 5.22-9.06a3.66 3.66 0 0 1 3.72-2.13c1.53.09 3.07 0 4.6 0s1.85-.46 1-1.83c-2-3.42-4.08-6.83-5.91-10.35C6.75 15.06 7.22 9.8 11 5a13.17 13.17 0 0 1 10.41-5h9.03z" fill="url(#a1f5fe142-cbdc-4af2-a0f0-cd4abdd1a852)"></path></svg></svg> <!----></g></g> <g transform="translate(67,14.059422969818115)"><g data-gra="path-name" fill-rule="" class="tp-name iconsvg-namesvg"><g transform="scale(1)"><g><path d="M2.26-17.02L9.05-17.02 11.93-7.37 17.4-17.02 22.89-17.02 20.8-1.63 16.09-1.63 17.4-9.73 13.24-2.66 9.05-2.66 6.96-9.46 5.93-1.63 1.22-1.63 3.32-15.99 2.26-17.02ZM26.51-17.02L32.79-17.02 30.42-1.63 25.47-1.63 27.29-15.99 26.51-17.02ZM36.97-1.63L36.97-1.63Q36.59-1.63 36.27-1.77 35.94-1.9 35.71-2.15 35.48-2.39 35.4-2.73 35.31-3.07 35.42-3.45L35.42-3.45 37.25-17.02 53.69-17.02 53.42-14.41 41.95-14.41 40.64-4.24 50.81-4.24 52.12-5.27 51.6-1.63 36.97-1.63ZM57.04-17.02L74-17.02 72.97-9.19Q72.97-8.81 72.79-8.47 72.61-8.13 72.32-7.88 72.02-7.64 71.65-7.5 71.28-7.37 70.87-7.37L70.87-7.37 67.48-7.37 72.97-1.63 67.23-1.63 62.01-7.37 61.22-1.63 56-1.63 57.83-15.99 57.04-17.02ZM68.54-14.41L62.8-14.41 62.26-9.98 68.02-9.98 68.54-14.41ZM78.32-17.02L92.95-17.02Q93.33-17.02 93.66-16.88 93.98-16.75 94.21-16.5 94.44-16.26 94.53-15.93 94.61-15.6 94.5-15.2L94.5-15.2 92.68-1.63 78.05-1.63Q77.67-1.63 77.34-1.77 77.02-1.9 76.79-2.15 76.56-2.39 76.47-2.73 76.39-3.07 76.5-3.45L76.5-3.45 78.32-17.02ZM89.28-14.41L83.03-14.41 81.72-4.24 87.73-4.24 89.28-14.41ZM98.6-1.63L98.6-1.63Q98.22-1.63 97.9-1.77 97.57-1.9 97.34-2.15 97.11-2.39 97.03-2.73 96.95-3.07 97.05-3.45L97.05-3.45 98.88-17.02 115.32-17.02 115.05-14.41 103.58-14.41 102.27-4.24 112.44-4.24 113.75-5.27 113.23-1.63 98.6-1.63ZM118.67-17.02L124.95-17.02 124.16-11.04 130.22-11.04 130.96-15.99 130.17-17.02 136.18-17.02 134.08-1.63 128.86-1.63 129.9-8.43 123.81-8.43 122.85-1.63 117.63-1.63 119.73-16.26 118.67-17.02ZM139.93-17.02L154.8-17.02 154.55-14.41 145.94-14.41 145.42-11.04 153.49-11.04 153.25-8.43 144.88-8.43 144.36-4.24 153.49-4.24 153.25-1.63 138.62-1.63 140.72-15.99 139.93-17.02ZM158.14-17.02L164.94-17.02 167.82-7.37 173.29-17.02 178.78-17.02 176.68-1.63 171.98-1.63 173.29-9.73 169.13-2.66 164.94-2.66 162.85-9.46 161.81-1.63 157.11-1.63 159.2-15.99 158.14-17.02Z" transform="translate(-1.2200000286102295, 17.020000457763672)"></path></g> <!----> <!----> <!----> <!----> <!----> <!----> <!----></g></g> <!----></g></g><defs v-gra="od"></defs></svg>